<?xml version="1.0" encoding="utf-8"?>
<!-- Generator: Adobe Illustrator 28.0.0, SVG Export Plug-In . SVG Version: 6.00 Build 0)  -->
<svg version="1.1" id="Layer_1" xmlns="http://www.w3.org/2000/svg" xmlns:xlink="http://www.w3.org/1999/xlink" x="0px" y="0px"
	 viewBox="0 0 166 167" style="enable-background:new 0 0 166 167;" xml:space="preserve">
<style type="text/css">
	.st0{fill-rule:evenodd;clip-rule:evenodd;fill:#FFFFFF;}
</style>
<g id="First-draft">
	<g id="Logotype" transform="translate(-408.000000, -1320.000000)">
		<g id="Freespee-Logotype---Freespee-Blue" transform="translate(408.000000, 1320.000000)">
			<path id="Shape_00000144335855653905319330000014098722737114804890_" class="st0" d="M165.9,93.5c-0.8-6.1-6.5-10.8-13-10
				l-27.3,3.5l29.5-28.4c4.3-4.3,4.8-11.8,0.5-16.1s-11.8-4.8-16-0.5l-20,19.1l7.3-40.5c1.3-6.1-3-12.3-9.1-13.6l0,0
				c-6-1.3-12.2,3-13.5,9.1l-4.8,27.1L82.2,6.5c-2.5-5.7-9.5-8.3-15.2-5.3c-5.7,2.6-8.3,9.6-5.2,15.3l11.8,24.9l-36-19.6
				c-5.7-3-12.5-1.3-15.6,4.3c-3,5.7-0.8,12.6,4.8,15.6l24.3,13.1l-40.8,5.3c-6,0.8-10.8,6.5-10,13.1c0.8,6.1,6.5,10.8,13,10
				l27.3-3.5l-29.5,28.4c-4.3,4.3-4.8,11.8-0.5,16.1c4.3,4.3,11.8,4.8,16,0.5l20-19.1l-7.8,40.5c-1.3,6.1,3,12.3,9.1,13.6
				s12.2-3,13.5-9.1l4.8-27.1l17.8,37c2.5,5.7,9.5,8.3,15.2,5.3l0,0c5.7-2.6,8.3-9.6,5.2-15.3l-11.8-24.9l36,19.8
				c5.7,3,12.5,0.8,15.6-4.8c3-5.7,0.8-12.6-4.8-15.6l-24.3-13.1l40.8-5.3C162.4,105.6,166.8,99.5,165.9,93.5L165.9,93.5z M83,102.1
				c-10.5,0-18.7-8.3-18.7-18.8S72.5,64.4,83,64.4s18.7,8.3,18.7,18.8S93.5,102.1,83,102.1L83,102.1z"/>
		</g>
	</g>
</g>
</svg>
